<svg width="404" height="54" viewBox="0 0 404 54" fill="none" xmlns="http://www.w3.org/2000/svg">
<g clip-path="url(#clip0_1_188)">
<path fill-rule="evenodd" clip-rule="evenodd" d="M381.496 17.2776C388.993 17.2706 396.49 17.2877 403.987 17.2706C404.01 19.0466 403.996 20.8226 404.001 22.5986C401.363 22.5946 398.729 22.5986 396.095 22.5986C396.095 30.3334 396.095 38.0662 396.095 45.8009C393.861 45.8009 391.632 45.8009 389.402 45.8009C389.402 38.0662 389.402 30.3334 389.402 22.5986C386.768 22.5986 384.129 22.5946 381.5 22.6026C381.491 20.8256 381.491 19.0496 381.496 17.2776ZM349.123 17.3368C351.362 17.1904 353.613 17.3157 355.865 17.2847C352.803 21.6981 349.56 25.9861 346.48 30.3865C349.901 35.5992 353.668 40.6274 357.184 45.7969C354.641 45.8079 352.102 45.7939 349.564 45.8039C346.288 41.1107 342.94 36.4707 339.637 31.7945C339.674 36.4636 339.646 41.1278 339.651 45.7929C337.405 45.8029 335.157 45.8069 332.914 45.7889C332.941 36.2811 332.891 26.7734 332.937 17.2656C335.175 17.2867 337.409 17.2726 339.651 17.2756C339.656 21.658 339.646 26.0403 339.656 30.4226C342.808 26.0634 345.925 21.667 349.123 17.3368ZM365.564 23.45C364.209 24.9362 364.022 27.0471 363.867 28.9625C367.015 28.9695 370.154 28.9665 373.302 28.9625C373.229 26.7292 373.202 23.9624 371.114 22.5946C369.381 21.6289 366.869 21.8655 365.564 23.45ZM359.336 21.7783C357.321 25.0475 356.835 29.0107 356.967 32.7833C357.099 36.0204 357.794 39.4059 359.837 42.0042C361.697 44.4812 364.727 45.814 367.734 46.2021C371.842 46.6934 376.223 46.1599 379.789 43.9307C379.807 42.1025 379.79 40.2744 379.803 38.4452C377.443 39.8131 374.822 40.7658 372.097 40.9894C370 41.1569 367.666 40.9894 365.992 39.5794C364.381 38.1905 364.05 35.9572 363.863 33.9586C369.272 33.9095 374.69 33.9516 380.103 33.9375C380.085 30.5741 380.29 27.1234 379.257 23.8712C378.625 21.677 377.328 19.6282 375.404 18.3657C372.897 16.7501 369.744 16.4633 366.851 16.8825C363.776 17.2666 360.933 19.1128 359.336 21.7783ZM314.581 22.2075C312.572 22.6056 311.352 24.528 310.858 26.3843C310.156 29.2102 310.177 32.1726 310.511 35.0477C310.791 37.1024 311.449 39.419 313.365 40.5291C315.6 41.6101 318.742 41.0245 320.034 38.7671C321.352 36.5619 321.435 33.8864 321.491 31.3884C321.429 28.8241 321.304 26.0604 319.827 23.8692C318.717 22.1764 316.433 21.7502 314.581 22.2075ZM314.783 17.1763C318.039 16.1124 321.898 16.8805 324.353 19.3294C327.111 21.9989 328.125 25.945 328.37 29.6675C328.611 33.8443 328.139 38.2998 325.828 41.8859C323.904 44.8733 320.341 46.6303 316.813 46.3515C314.143 46.2572 311.749 44.6387 310.268 42.4746C310.299 46.3164 310.285 50.1572 310.275 53.999C308.044 53.999 305.815 53.996 303.587 53.999C303.597 41.7636 303.594 29.5271 303.587 17.2907C305.655 17.2666 307.724 17.2837 309.795 17.2736C309.889 18.485 310.007 19.6954 310.122 20.9028C311.31 19.2873 312.825 17.7901 314.783 17.1763ZM284.215 33.5404C282.178 34.5934 282.049 37.4023 282.895 39.2866C283.788 41.1639 286.179 41.5229 288.018 41.1398C289.404 40.9543 290.583 40.1139 291.476 39.067C291.462 36.8588 291.469 34.6525 291.469 32.4473C289.04 32.5556 286.429 32.3471 284.215 33.5404ZM283.162 17.2917C286.739 16.6188 290.628 16.5035 294.024 17.9967C296.613 19.183 297.952 22.03 298.105 24.7727C298.342 31.7785 297.844 38.8092 298.508 45.8009C296.305 45.8009 294.101 45.8009 291.901 45.8009C291.71 45.0157 291.536 44.2315 291.386 43.4423C289.878 44.8793 287.994 45.9784 285.881 46.1108C283.037 46.4457 279.809 45.9333 277.795 43.7141C275.706 41.5088 275.199 38.1835 275.704 35.2743C276.169 32.7452 278.112 30.6964 280.421 29.7026C283.869 28.1222 287.748 27.9788 291.477 28.0068C291.432 26.3632 291.672 24.3676 290.323 23.1502C288.766 21.9989 286.671 22.1273 284.853 22.3549C282.287 22.749 279.716 23.5373 277.564 25.0305C277.595 23.1883 277.515 21.3461 277.595 19.5069C279.182 18.3035 281.247 17.8041 283.162 17.2917ZM237.559 6.37394C240.569 6.36993 243.582 6.37695 246.596 6.36993C249.185 16.0452 251.803 25.7134 254.44 35.3746C257.121 25.7134 259.738 16.0351 262.417 6.37394C265.365 6.36993 268.316 6.38096 271.267 6.36692C271.26 19.5099 271.267 32.6499 271.263 45.7929C269.118 45.81 266.977 45.7889 264.832 45.8069C264.832 35.9572 264.839 26.1075 264.832 16.2588C262.045 26.0694 259.5 35.9582 256.81 45.7969C254.93 45.8039 253.049 45.7969 251.168 45.8039C248.523 35.9402 245.796 26.1015 243.24 16.2166C243.041 26.0734 243.209 35.9402 243.153 45.8009C241.283 45.8009 239.413 45.8009 237.547 45.8009C237.558 32.6609 237.538 19.5169 237.559 6.37394Z" fill="white"/>
<path fill-rule="evenodd" clip-rule="evenodd" d="M113.828 17.2736C116.066 17.2836 118.304 17.2706 120.546 17.2836C120.543 21.659 120.539 26.0343 120.55 30.4136C123.699 26.0343 126.873 21.677 130.004 17.2877C132.271 17.2736 134.536 17.2626 136.802 17.2947C133.622 21.659 130.49 26.0594 127.309 30.4246C130.893 35.5531 134.502 40.6655 138.088 45.7899C135.547 45.814 133.01 45.7899 130.469 45.8039C127.171 41.1739 123.928 36.4987 120.56 31.9178C120.518 36.5439 120.557 41.1739 120.543 45.8009C118.297 45.8009 116.052 45.8009 113.807 45.8009C113.825 36.2932 113.783 26.7814 113.828 17.2736ZM67.6683 22.6056C67.6094 28.6105 67.4186 34.7929 65.3086 40.4799C68.4716 40.4699 71.6385 40.497 74.8014 40.4659C74.7774 34.5061 74.8014 28.5474 74.7914 22.5916C72.4157 22.6086 70.042 22.5876 67.6683 22.6056ZM61.888 17.2776C68.4196 17.2776 74.9503 17.2776 81.4849 17.2816C81.4819 25.0134 81.4849 32.7452 81.4849 40.4799C82.479 40.4799 83.48 40.4799 84.481 40.4799C84.481 44.419 84.481 48.3621 84.481 52.3012C82.4061 52.2942 80.3381 52.3082 78.2661 52.2912C78.2731 50.1311 78.2521 47.968 78.2801 45.8079C73.2579 45.7799 68.2348 45.829 63.2117 45.7839C63.1767 47.954 63.1837 50.1211 63.2047 52.2912C61.1257 52.3082 59.0477 52.2942 56.9727 52.3012C56.9797 48.3621 56.9837 44.426 56.9727 40.487C57.6331 40.4799 58.3004 40.4769 58.9638 40.4729L59.1586 40.3686C60.2186 37.9889 60.764 35.4207 61.1397 32.8535C61.871 27.696 61.9299 22.4763 61.888 17.2776ZM31.7352 17.2816C33.98 17.2816 36.2298 17.2636 38.4777 17.2957C38.4607 21.0533 38.4707 24.8108 38.4707 28.5724C41.4668 28.5754 44.4639 28.5684 47.4629 28.5754C47.4769 24.8038 47.435 21.0322 47.4839 17.2636C49.7088 17.2947 51.9326 17.2636 54.1575 17.2847C54.1505 26.7894 54.1575 36.2972 54.1545 45.8009C51.9236 45.8009 49.6948 45.8009 47.4629 45.8009C47.4629 41.8307 47.4629 37.8636 47.4629 33.8924C44.4639 33.8954 41.4668 33.8884 38.4707 33.8954C38.4637 37.8626 38.4747 41.8297 38.4677 45.7999C36.2219 45.7999 33.977 45.7999 31.7352 45.7999C31.7352 36.2932 31.7352 26.7854 31.7352 17.2816ZM141.812 20.0374C138.885 22.8744 137.78 27.0852 137.703 31.0594C137.661 34.828 138.187 38.8574 140.516 41.9491C142.396 44.4962 145.486 45.8842 148.569 46.2231C151.756 46.554 155.225 46.4568 157.999 44.6417C157.989 42.8075 157.999 40.9713 157.992 39.1362C155.587 40.7768 152.521 41.4005 149.671 40.849C147.568 40.4308 146.003 38.6518 145.392 36.6552C144.482 33.745 144.444 30.5871 145.03 27.6117C145.496 25.215 147.112 22.8212 149.609 22.2667C152.459 21.6389 155.455 22.4301 157.996 23.7669C157.996 21.8756 157.986 19.9853 158.006 18.0969C155.868 16.9668 153.397 16.7712 151.029 16.709C147.704 16.6388 144.211 17.6366 141.812 20.0374ZM94.3045 24.0186C93.3864 25.4908 93.1886 27.2627 93.0527 28.9555C96.1987 28.9766 99.3406 28.9625 102.487 28.9625C102.438 26.7994 102.382 24.2071 100.529 22.745C98.5863 21.4333 95.5303 21.9428 94.3045 24.0186ZM89.9687 19.9461C92.4023 17.3438 96.1627 16.4052 99.6183 16.7782C102.593 16.9567 105.652 18.3837 107.175 21.0523C109.563 24.8871 109.302 29.5933 109.288 33.9305C103.879 33.9516 98.4675 33.9265 93.0597 33.9415C93.2435 36.0344 93.6471 38.4252 95.4374 39.775C97.0089 40.9543 99.0869 41.1077 100.981 41.0175C103.834 40.8319 106.606 39.8863 109.035 38.386C108.959 40.2242 109.164 42.0845 108.934 43.9096C105.691 46.0346 101.659 46.5781 97.8601 46.2963C94.6931 46.0657 91.4333 44.8934 89.3473 42.3883C86.7019 39.2906 86.0735 35.0166 86.1354 31.0664C86.2393 27.1093 87.1255 22.8704 89.9687 19.9461ZM10.4339 7.06488C13.2182 6.3248 16.1174 6.37394 18.9706 6.37394C21.3453 6.38096 23.719 6.35689 26.0967 6.39099C26.0717 19.527 26.0927 32.6639 26.0857 45.7999C23.8089 45.7999 21.5361 45.7999 19.2623 45.7999C19.2663 34.447 19.2623 23.096 19.2623 11.7431C16.0994 11.708 12.5438 11.4502 9.93336 13.5993C7.1071 15.9369 7.22599 20.26 8.60865 23.3577C10.4579 26.8676 14.2152 28.6196 17.2952 30.8559C14.1043 35.9041 10.6846 40.7998 7.40981 45.7929C4.93921 45.8099 2.4706 45.7929 0 45.8029C2.96113 41.3434 5.96821 36.9229 8.92934 32.4674C5.68648 30.203 2.54453 27.2858 1.45259 23.3437C0.455558 19.6252 0.705316 15.3833 2.86722 12.1101C4.56357 9.47266 7.44877 7.81199 10.4339 7.06488Z" fill="white"/>
<path fill-rule="evenodd" clip-rule="evenodd" d="M190.248 27.8594C195.316 20.9299 200.221 13.8861 205.243 6.92148C207.51 7.82503 209.775 8.74261 212.045 9.65016C213.053 10.1385 214.322 10.3371 215.142 11.0772C214.284 15.3823 213.175 19.6393 212.25 23.9304C215.337 21.3692 218.382 18.7528 221.468 16.1846C222.963 19.6493 223.623 23.442 223.432 27.2106L223.404 27.2387C218.305 31.8095 213.306 36.4987 208.155 41.0094C205.542 39.6205 202.892 38.2988 200.22 37.0252C201.228 33.037 202.222 29.0458 203.206 25.0545C198.485 32.0081 193.932 39.077 189.204 46.0235C185.878 44.6737 182.541 43.344 179.211 42.0042C180.233 37.9849 181.203 33.9516 182.239 29.9323C179.813 33.1774 177.39 36.4255 174.981 39.6807C173.094 36.579 171.811 33.1002 171.412 29.479C175.531 24.5561 179.58 19.5731 183.654 14.6151C183.905 14.3885 184.161 13.7958 184.586 14.1167C187.155 15.3512 189.696 16.6569 192.236 17.9616C191.545 21.2548 190.906 24.5591 190.248 27.8594Z" fill="black"/>
<path fill-rule="evenodd" clip-rule="evenodd" d="M189.205 46.0235C193.933 39.077 198.486 32.0081 203.207 25.0545C202.223 29.0458 201.229 33.037 200.221 37.0252C202.893 38.2988 205.543 39.6205 208.156 41.0094C213.307 36.4977 218.306 31.8085 223.405 27.2387C223.147 36.8297 217.068 45.8952 208.403 49.8934C202.789 52.5309 196.245 53.0654 190.283 51.3796C183.946 49.6076 178.375 45.3336 174.982 39.6807C177.391 36.4255 179.814 33.1774 182.24 29.9322C181.204 33.9516 180.234 37.9849 179.212 42.0042C182.542 43.344 185.88 44.6737 189.205 46.0235Z" fill="#FED104"/>
<path fill-rule="evenodd" clip-rule="evenodd" d="M185.522 2.83598C191.754 -0.416172 199.332 -0.869448 205.946 1.46512C212.891 3.87892 218.686 9.35333 221.469 16.1846C218.383 18.7528 215.338 21.3692 212.251 23.9304C213.176 19.6393 214.284 15.3823 215.143 11.0772C214.323 10.3371 213.054 10.1385 212.046 9.65016C209.776 8.74261 207.511 7.82503 205.244 6.92148C200.222 13.8851 195.317 20.9299 190.249 27.8594C190.907 24.5591 191.546 21.2548 192.237 17.9616C189.697 16.6559 187.156 15.3512 184.587 14.1167C184.163 13.7958 183.906 14.3885 183.655 14.6151C179.582 19.5731 175.532 24.5551 171.413 29.479C170.95 24.8239 171.416 20.0194 173.359 15.7253C175.757 10.1877 180.126 5.52255 185.522 2.83598Z" fill="#FED104"/>
</g>
<defs>
<clipPath id="clip0_1_188">
<rect width="404" height="54" fill="white"/>
</clipPath>
</defs>
</svg>
