<svg width="30" height="30" viewBox="0 0 30 30" fill="none" xmlns="http://www.w3.org/2000/svg">
<g clip-path="url(#clip0_1_71)">
<path d="M1.5383 20.3847C0.688723 20.3847 0 19.6966 0 18.8464V11.1549C0 10.3053 0.688723 9.61658 1.5383 9.61658C2.38787 9.61658 3.0766 10.3053 3.0766 11.1549V18.8464C3.0766 19.6947 2.38787 20.3847 1.5383 20.3847Z" fill="white"/>
<path d="M6.02553 24.231C5.17595 24.231 4.48723 23.5423 4.48723 22.6927V7.30722C4.48723 6.45764 5.17595 5.76892 6.02553 5.76892C6.8751 5.76892 7.56382 6.45764 7.56382 7.30722V22.6927C7.56446 23.5423 6.8751 24.231 6.02553 24.231Z" fill="white"/>
<path d="M10.5127 22.3072C9.66316 22.3072 8.97444 21.6185 8.97444 20.7689V9.23105C8.97444 8.38147 9.66316 7.69275 10.5127 7.69275C11.3623 7.69275 12.0517 8.38147 12.0517 9.23105V20.7689C12.051 21.6185 11.3623 22.3072 10.5127 22.3072Z" fill="white"/>
<path d="M15 26.1543C14.1504 26.1543 13.4617 25.4662 13.4617 24.616V5.38473C13.4617 4.53516 14.1504 3.84644 15 3.84644C15.8496 3.84644 16.5383 4.53516 16.5383 5.38473V24.6154C16.5383 25.4656 15.8496 26.1543 15 26.1543Z" fill="white"/>
<path d="M19.4866 30C18.6376 30 17.9483 29.3113 17.9483 28.4617V1.5383C17.9483 0.688723 18.6376 0 19.4866 0C20.3368 0 21.0249 0.688723 21.0249 1.5383V28.4617C21.0249 29.3113 20.3368 30 19.4866 30Z" fill="white"/>
<path d="M23.9751 24.231C23.1249 24.231 22.4368 23.5423 22.4368 22.6927V7.30722C22.4368 6.45764 23.1249 5.76892 23.9751 5.76892C24.824 5.76892 25.5134 6.45764 25.5134 7.30722V22.6927C25.5134 23.5423 24.824 24.231 23.9751 24.231Z" fill="white"/>
<path d="M28.4617 18.4615C27.6121 18.4615 26.9234 17.7728 26.9234 16.9239V13.0775C26.9234 12.2279 27.6121 11.5392 28.4617 11.5392C29.3113 11.5392 30 12.2279 30 13.0775V16.9239C30 17.7728 29.3113 18.4615 28.4617 18.4615Z" fill="white"/>
</g>
<defs>
<clipPath id="clip0_1_71">
<rect width="30" height="30" fill="white"/>
</clipPath>
</defs>
</svg>
